<svg xmlns="http://www.w3.org/2000/svg" width="1024" height="1024" viewBox="0 0 1024 1024">
  <defs>
    <linearGradient id="bg" x1="0" y1="0" x2="0.9" y2="1">
      <stop offset="0" stop-color="#3a7bd5"/>
      <stop offset="1" stop-color="#123a6e"/>
    </linearGradient>
    <linearGradient id="panelL" x1="0" y1="0" x2="0" y2="1">
      <stop offset="0" stop-color="#ffffff"/>
      <stop offset="1" stop-color="#e6edf6"/>
    </linearGradient>
    <linearGradient id="panelR" x1="0" y1="0" x2="0" y2="1">
      <stop offset="0" stop-color="#dbe4f0"/>
      <stop offset="1" stop-color="#c2d0e2"/>
    </linearGradient>
  </defs>

  <rect x="0" y="0" width="1024" height="1024" rx="185" fill="url(#bg)"/>

  <rect x="508" y="196" width="8" height="632" rx="4" fill="#ffffff" opacity="0.35"/>

  <rect x="96" y="180" width="392" height="664" rx="30" fill="url(#panelL)"/>
  <rect x="536" y="180" width="392" height="664" rx="30" fill="url(#panelR)"/>

  <rect x="132" y="224" width="320" height="44" rx="22" fill="#3a7bd5"/>
  <rect x="572" y="224" width="320" height="44" rx="22" fill="#93a9c4"/>

  <rect x="132" y="300" width="320" height="60" rx="14" fill="#2f6fd6"/>
  <rect x="132" y="380" width="264" height="56" rx="14" fill="#c7d4e5"/>
  <rect x="132" y="456" width="304" height="56" rx="14" fill="#c7d4e5"/>
  <rect x="132" y="532" width="256" height="56" rx="14" fill="#c7d4e5"/>
  <rect x="132" y="608" width="288" height="56" rx="14" fill="#c7d4e5"/>
  <rect x="132" y="684" width="320" height="56" rx="14" fill="#c7d4e5"/>
  <rect x="132" y="760" width="248" height="56" rx="14" fill="#c7d4e5"/>

  <rect x="572" y="300" width="320" height="60" rx="14" fill="#a9bccf"/>
  <rect x="572" y="380" width="264" height="56" rx="14" fill="#b5c5d8"/>
  <rect x="572" y="456" width="304" height="56" rx="14" fill="#b5c5d8"/>
  <rect x="572" y="532" width="256" height="56" rx="14" fill="#b5c5d8"/>
  <rect x="572" y="608" width="288" height="56" rx="14" fill="#b5c5d8"/>
  <rect x="572" y="684" width="320" height="56" rx="14" fill="#b5c5d8"/>
</svg>